<!DOCTYPE svg PUBLIC "-//W3C//DTD SVG 1.1//EN" "http://www.w3.org/Graphics/SVG/1.1/DTD/svg11.dtd">
<!-- Uploaded to: SVG Repo, www.svgrepo.com, Transformed by: SVG Repo Mixer Tools -->
<svg width="800px" height="800px" viewBox="-3.36 -3.36 54.72 54.72" xmlns="http://www.w3.org/2000/svg" fill="#000000">

<g id="SVGRepo_bgCarrier" stroke-width="0"/>

<g id="SVGRepo_tracerCarrier" stroke-linecap="round" stroke-linejoin="round"/>

<g id="SVGRepo_iconCarrier"> <title>text-left</title> <g id="Layer_2" data-name="Layer 2"> <g id="invisible_box" data-name="invisible box"> <rect width="48" height="48" fill="none"/> <rect width="48" height="48" fill="none"/> <rect width="48" height="48" fill="none"/> </g> <g id="Q3_icons" data-name="Q3 icons"> <path d="M44,16a2,2,0,0,1-2,2H6a2,2,0,0,1-2-2H4a2,2,0,0,1,2-2H42a2,2,0,0,1,2,2Z"/> <path d="M32,8a2,2,0,0,1-2,2H6A2,2,0,0,1,4,8H4A2,2,0,0,1,6,6H30a2,2,0,0,1,2,2Z"/> <path d="M44,32a2,2,0,0,1-2,2H6a2,2,0,0,1-2-2H4a2,2,0,0,1,2-2H42a2,2,0,0,1,2,2Z"/> <path d="M32,24a2,2,0,0,1-2,2H6a2,2,0,0,1-2-2H4a2,2,0,0,1,2-2H30a2,2,0,0,1,2,2Z"/> <path d="M32,40a2,2,0,0,1-2,2H6a2,2,0,0,1-2-2H4a2,2,0,0,1,2-2H30a2,2,0,0,1,2,2Z"/> </g> </g> </g>

</svg>