<svg width="256" height="256" viewBox="0 0 256 256" fill="none" xmlns="http://www.w3.org/2000/svg">
  <path fill-rule="evenodd" clip-rule="evenodd" d="M104.425 42.3784C100.056 37.0733 93.5437 34 86.6712 34H29C22.3726 34 17 39.3726 17 46V58.1371V68.2V160C17 166.627 22.3726 172 29 172H229C235.627 172 241 166.627 241 160V70.1371C241 63.5097 235.627 58.1371 229 58.1371H117.404L104.425 42.3784Z" fill="url(#paint0_linear_868_21631)"/>
  <mask id="mask0_868_21631" style="mask-type:alpha" maskUnits="userSpaceOnUse" x="17" y="34" width="224" height="138">
    <path fill-rule="evenodd" clip-rule="evenodd" d="M104.425 42.3784C100.056 37.0733 93.5437 34 86.6712 34H29C22.3726 34 17 39.3726 17 46V58.1371V68.2V160C17 166.627 22.3726 172 29 172H229C235.627 172 241 166.627 241 160V70.1371C241 63.5097 235.627 58.1371 229 58.1371H117.404L104.425 42.3784Z" fill="url(#paint1_linear_868_21631)"/>
  </mask>
  <g filter="url(#filter1_d_868_21631)">
    <g filter="url(#filter2_ii_868_21631)">
      <path fill-rule="evenodd" clip-rule="evenodd" d="M92.789 74C97.7642 74 102.605 72.3868 106.586 69.4024L116.459 62H229C235.627 62 241 67.3726 241 74V108V198C241 204.627 235.627 210 229 210H29C22.3726 210 17 204.627 17 198L17 108V86C17 79.3726 22.3726 74 29 74H87H92.789Z" fill="url(#paint2_linear_868_21631)"/>
    </g>
  </g>
  <defs>
    <filter id="filter1_d_868_21631" x="13" y="62" width="232" height="156" filterUnits="userSpaceOnUse" color-interpolation-filters="sRGB">
      <feFlood flood-opacity="0" result="BackgroundImageFix"/>
      <feColorMatrix in="SourceAlpha" type="matrix" values="0 0 0 0 0 0 0 0 0 0 0 0 0 0 0 0 0 0 127 0" result="hardAlpha"/>
      <feOffset dy="4"/>
      <feGaussianBlur stdDeviation="2"/>
      <feComposite in2="hardAlpha" operator="out"/>
      <feColorMatrix type="matrix" values="0 0 0 0 0 0 0 0 0 0 0 0 0 0 0 0 0 0 0.25 0"/>
      <feBlend mode="normal" in2="BackgroundImageFix" result="effect1_dropShadow_868_21631"/>
      <feBlend mode="normal" in="SourceGraphic" in2="effect1_dropShadow_868_21631" result="shape"/>
    </filter>
    <filter id="filter2_ii_868_21631" x="17" y="62" width="224" height="148" filterUnits="userSpaceOnUse" color-interpolation-filters="sRGB">
      <feFlood flood-opacity="0" result="BackgroundImageFix"/>
      <feBlend mode="normal" in="SourceGraphic" in2="BackgroundImageFix" result="shape"/>
      <feColorMatrix in="SourceAlpha" type="matrix" values="0 0 0 0 0 0 0 0 0 0 0 0 0 0 0 0 0 0 127 0" result="hardAlpha"/>
      <feOffset dy="4"/>
      <feComposite in2="hardAlpha" operator="arithmetic" k2="-1" k3="1"/>
      <feColorMatrix type="matrix" values="0 0 0 0 1 0 0 0 0 1 0 0 0 0 1 0 0 0 0.25 0"/>
      <feBlend mode="normal" in2="shape" result="effect1_innerShadow_868_21631"/>
      <feColorMatrix in="SourceAlpha" type="matrix" values="0 0 0 0 0 0 0 0 0 0 0 0 0 0 0 0 0 0 127 0" result="hardAlpha"/>
      <feOffset dy="-4"/>
      <feComposite in2="hardAlpha" operator="arithmetic" k2="-1" k3="1"/>
      <feColorMatrix type="matrix" values="0 0 0 0 0 0 0 0 0 0 0 0 0 0 0 0 0 0 0.9 0"/>
      <feBlend mode="soft-light" in2="effect1_innerShadow_868_21631" result="effect2_innerShadow_868_21631"/>
    </filter>
    <linearGradient id="paint0_linear_868_21631" x1="17" y1="24.1429" x2="229.62" y2="195.941" gradientUnits="userSpaceOnUse">
      <stop offset="0.25" stop-color="#FEBF18"/>
      <stop offset="0.934" stop-color="#E0A42D"/>
    </linearGradient>
    <linearGradient id="paint1_linear_868_21631" x1="17" y1="34" x2="197.768" y2="215.142" gradientUnits="userSpaceOnUse">
      <stop stop-color="#05815D"/>
      <stop offset="1" stop-color="#0C575F"/>
    </linearGradient>
    <linearGradient id="paint2_linear_868_21631" x1="17" y1="6.93024" x2="241.096" y2="227.112" gradientUnits="userSpaceOnUse">
      <stop offset="0.187" stop-color="#FFE69C"/>
      <stop offset="0.934" stop-color="#FFA84F"/>
    </linearGradient>
  </defs>
</svg>
