<?xml version="1.0" encoding="UTF-8" standalone="no"?>
<!-- Uploaded to: SVG Repo, www.svgrepo.com, Generator: SVG Repo Mixer Tools -->
<svg width="800px" height="800px" viewBox="-1 0 8 8" version="1.1" xmlns="http://www.w3.org/2000/svg" xmlns:xlink="http://www.w3.org/1999/xlink">
    
    <title>pause [#1006]</title>
    <desc>Created with Sketch.</desc>
    <defs>

</defs>
    <g id="Page-1" stroke="none" stroke-width="1" fill="none" fill-rule="evenodd">
        <g id="Dribbble-Light-Preview" transform="translate(-227.000000, -3765.000000)" fill="#000">
            <g id="icons" transform="translate(56.000000, 160.000000)">
                <!-- Adjusted the height of both rectangles to be slightly longer and reduced the space between them -->
                <path d="M172,3605.5 C171.448,3605.5 171,3605.948 171,3606.5 L171,3611.5 C171,3612.052 171.448,3612.5 172,3612.5 C172.552,3612.5 173,3612.052 173,3611.5 L173,3606.5 C173,3605.948 172.552,3605.5 172,3605.5 M176.5,3605.5 L176.5,3611.5 C176.5,3612.052 176.052,3612.5 175.5,3612.5 C174.948,3612.5 174.5,3612.052 174.5,3611.5 L174.5,3606.5 C174.5,3605.948 174.948,3605.5 175.5,3605.5 C176.052,3605.5 176.5,3605.948 176.5,3606.5" id="pause-[#1006]">
                </path>
            </g>
        </g>
    </g>
</svg>
