<svg enable-background="0 0 512 512" viewBox="-100 -100 1195 1195" xmlns="http://www.w3.org/2000/svg">
  <circle cx="512" cy="512" fill="#2196f3" r="512"/>
  <path d="m790 445.5c13 20 20.5 43.6 21.4 68.1 45.8 16.1 73.2 62.9 65.1 110.7-8.1 47.8-49.7 82.8-98.1 83h-498.1c-35 0-68.6-13.8-93.4-38.5l211-167.2c7.8 4.2 16.8 6.6 26.3 6.6 8.3 0 16.6-1.8 24.1-5.4l103.2 90.3c-5.6 17.6-2.3 36.8 8.9 51.4 11.2 14.7 28.8 23 47.5 22.4 18.7-.6 35.3-10 45.3-25.2 10-15.2 12.6-35 5.6-52.5zm-31.2-31.3-137.4 137.4c-6.5-2.5-13.4-3.8-20.3-3.7-8.2 0-16.5 1.8-24.1 5.4l-103.2-90.3c5.4-17 2.4-35.4-7.8-49.8s-26.3-23.1-43.8-23.5c-17.5-.4-34.1 7.4-44.8 21-10.7 13.6-14.5 32.2-10.1 49.2l-209.9 166.1c-20.2-41.3-17.6-90.2 7-129.1 24.7-39 67.7-62.5 114.1-62 10.6-83.7 78.4-148.5 162.4-154.8 84-6.6 161.1 46.6 184.7 127.4 18.9-11.2 40.3-17.1 62.2-17.1 25.6-.1 49.2 7.8 68.9 21.3z" fill="#fff"/>
</svg>
